<svg width="16" height="16" viewBox="0 0 16 16" fill="none" xmlns="http://www.w3.org/2000/svg">
<path d="M5.71601 3.37408V8.97104C5.71601 9.51684 5.2754 9.95943 4.72364 9.95943C4.17586 9.95943 3.73128 9.50791 3.73128 8.97203V3.38797L1.91921 5.20103C1.82721 5.29384 1.71777 5.36755 1.59717 5.41791C1.47658 5.46827 1.34722 5.4943 1.21653 5.49448C1.08585 5.49466 0.956414 5.46901 0.83568 5.41899C0.714945 5.36897 0.605292 5.29557 0.513028 5.20301C0.420024 5.11111 0.346221 5.00162 0.295911 4.88093C0.2456 4.76024 0.219787 4.63076 0.219972 4.5C0.220156 4.36925 0.246335 4.23983 0.296986 4.11929C0.347637 3.99874 0.421749 3.88947 0.515013 3.79782L4.02105 0.292778C4.11404 0.199148 4.22479 0.125026 4.3468 0.0747557C4.46881 0.0244859 4.59963 -0.000919363 4.73158 2.94782e-05C4.98861 -0.00195526 5.24563 0.0962892 5.44311 0.292778L8.94617 3.79782C9.34312 4.19477 9.33716 4.81599 8.94915 5.20301C8.8569 5.29542 8.74731 5.36869 8.62667 5.41862C8.50602 5.46856 8.37671 5.49417 8.24614 5.49398C8.11557 5.4938 7.98633 5.46782 7.86582 5.41755C7.74532 5.36728 7.63594 5.29369 7.54395 5.20103L5.718 3.37507L5.71601 3.37408Z" fill="#A3ACB9"/>
<path d="M12.2508 12.6249V7.02799C12.2508 6.8979 12.2251 6.7691 12.1752 6.64898C12.1252 6.52886 12.052 6.41978 11.9598 6.32803C11.8676 6.23628 11.7582 6.16365 11.6378 6.11432C11.5174 6.06499 11.3885 6.03993 11.2584 6.04059C10.7106 6.04059 10.2661 6.49211 10.2661 7.02799V12.6111L8.45399 10.799C8.362 10.7063 8.25262 10.6327 8.13212 10.5825C8.01162 10.5322 7.88237 10.5062 7.7518 10.506C7.62124 10.5059 7.49192 10.5315 7.37127 10.5814C7.25063 10.6313 7.14104 10.7046 7.04879 10.797C6.95579 10.8889 6.88199 10.9984 6.83168 11.1191C6.78137 11.2398 6.75555 11.3693 6.75574 11.5C6.75592 11.6308 6.7821 11.7602 6.83275 11.8807C6.8834 12.0013 6.95752 12.1106 7.05078 12.2022L10.5548 15.7062C10.7513 15.9037 11.0093 16.001 11.2654 16C11.3976 16.0009 11.5286 15.9754 11.6508 15.9249C11.773 15.8745 11.8838 15.8001 11.9769 15.7062L15.4809 12.2022C15.8779 11.8053 15.8709 11.184 15.4829 10.797C15.3907 10.7046 15.2811 10.6313 15.1604 10.5814C15.0398 10.5315 14.9105 10.5059 14.7799 10.506C14.6494 10.5062 14.5201 10.5322 14.3996 10.5825C14.2791 10.6327 14.1697 10.7063 14.0777 10.799L12.2518 12.6249H12.2508Z" fill="#4F566B"/>
</svg>
