<svg width="16" height="16" viewBox="0 0 16 16" fill="none" xmlns="http://www.w3.org/2000/svg">
<path d="M13.587 3.37863H13.917L14.259 3.53863C14.596 3.69863 15 4.17863 15 4.62863V11.6946C15 12.0606 14.596 12.3946 14.259 12.5556L8.53303 15.3256C8.41003 15.3836 8.27503 15.4126 8.00003 15.4126V9.39563H2.66003V4.06263L9.70403 1.46963L9.82103 1.35963L12.3 2.56063L11.964 3.39563L13.588 3.37863H13.587Z" fill="#4F566B"/>
<path d="M8.00002 7.12863V15.3756C8.00002 15.3756 7.45402 15.3976 7.28502 15.3246L1.53302 12.5706C1.3721 12.4919 1.2367 12.3693 1.1424 12.217C1.0481 12.0646 0.998748 11.8888 1.00002 11.7096V4.41463C0.998818 4.23563 1.04821 4.05993 1.14251 3.90778C1.23681 3.75562 1.37218 3.63321 1.53302 3.55463L7.63702 0.672635C7.75664 0.614959 7.88773 0.585007 8.02052 0.585007C8.15332 0.585007 8.28441 0.614959 8.40402 0.672635L10.157 1.51063L3.24402 4.81763C3.16632 4.85675 3.10108 4.9168 3.05567 4.99101C3.01026 5.06522 2.98649 5.15064 2.98702 5.23763L2.99402 7.26763L5.00202 8.29963V6.20563C5.00149 6.11902 5.02505 6.03396 5.07009 5.95996C5.11512 5.88597 5.17984 5.82595 5.25702 5.78663L12.163 2.47363L14.154 3.42663C14.342 3.51963 14.504 3.69463 14.66 3.85363L8.00002 7.12863Z" fill="#A3ACB9"/>
</svg>
