<svg width="14" height="14" viewBox="0 0 14 14" fill="none" xmlns="http://www.w3.org/2000/svg">
<path fill-rule="evenodd" clip-rule="evenodd" d="M13.197 6.017C12.967 6.017 11.59 6.017 11.017 5.322C11.017 5.207 10.902 5.207 10.902 5.091C10.787 4.281 11.82 3.24 11.934 3.124C12.164 2.893 12.164 2.545 12.049 2.43C11.934 2.314 11.475 1.851 11.361 1.62C11.246 1.388 10.901 1.504 10.672 1.736C10.442 1.966 9.525 2.893 8.722 2.776C8.607 2.776 8.607 2.661 8.492 2.661C7.803 2.198 7.803 0.81 7.803 0.579C7.803 0.231 7.689 0 7.459 0H6.311C6.082 0 5.967 0.231 5.967 0.579C5.967 0.809 5.967 2.199 5.279 2.777C5.164 2.777 5.164 2.893 5.049 2.893C4.246 2.893 3.328 1.967 3.099 1.736C2.869 1.504 2.525 1.504 2.409 1.62C2.295 1.851 1.836 2.314 1.607 2.43C1.492 2.545 1.492 2.893 1.721 3.124C1.951 3.355 2.869 4.281 2.754 5.091C2.754 5.207 2.639 5.207 2.639 5.322C2.18 6.017 0.803 6.017 0.574 6.017C0.23 6.017 0 6.132 0 6.364V7.405C0 7.636 0.23 7.868 0.574 7.868C0.804 7.868 2.18 7.868 2.754 8.562C2.754 8.678 2.869 8.678 2.869 8.793C2.984 9.603 1.951 10.645 1.836 10.76C1.606 10.992 1.606 11.339 1.721 11.455C1.836 11.57 2.295 12.033 2.41 12.265C2.525 12.38 2.869 12.38 3.098 12.149C3.328 11.917 4.246 10.992 5.049 11.107C5.164 11.107 5.164 11.223 5.279 11.223C5.967 11.802 5.967 13.074 5.967 13.421C5.967 13.653 6.197 14 6.427 14H7.459C7.689 14 7.918 13.769 7.918 13.421C7.918 13.191 7.918 11.801 8.607 11.223C8.721 11.223 8.721 11.107 8.837 11.107C9.639 10.992 10.672 12.033 10.787 12.149C11.017 12.38 11.361 12.38 11.475 12.264L12.279 11.454C12.393 11.339 12.393 10.992 12.164 10.76C11.934 10.529 11.016 9.603 11.131 8.793C11.131 8.678 11.246 8.678 11.246 8.562C11.82 7.868 13.082 7.868 13.426 7.868C13.656 7.868 14 7.636 14 7.405V6.364C13.77 6.132 13.541 6.017 13.197 6.017ZM6.885 9.487C5.508 9.487 4.361 8.331 4.361 6.942C4.361 5.554 5.508 4.397 6.885 4.397C8.262 4.397 9.41 5.554 9.41 6.942C9.41 8.331 8.262 9.488 6.885 9.488V9.487Z" fill="#4F566B"/>
</svg>
